REM DIRINDEX 1\2,1\3,1\4
REM DIRNAME folder01,folder02,folder03,folder04
TITLE ""
FILE "011 011_Lesson 3_TOEFL_3900.mp3" MP3
  TRACK 01 AUDIO
    TITLE "4:cjc151_0444"
    INDEX 01 00:00:00
  TRACK 02 AUDIO
    TITLE "0:"
    INDEX 01 00:01:48
  TRACK 03 AUDIO
    TITLE "2:cjc151_0445"
    INDEX 01 00:02:32
  TRACK 04 AUDIO
    TITLE "0:"
    INDEX 01 00:03:29
  TRACK 05 AUDIO
    TITLE "3:cjc151_0446"
    INDEX 01 00:05:09
  TRACK 06 AUDIO
    TITLE "0:"
    INDEX 01 00:09:04
  TRACK 07 AUDIO
    TITLE "2:cjc151_0447"
    INDEX 01 00:10:59
  TRACK 08 AUDIO
    TITLE "0:"
    INDEX 01 00:12:01
  TRACK 09 AUDIO
    TITLE "3:cjc151_0448"
    INDEX 01 00:13:53
  TRACK 10 AUDIO
    TITLE "0:"
    INDEX 01 00:17:21
  TRACK 11 AUDIO
    TITLE "2:cjc151_0449"
    INDEX 01 00:19:01
  TRACK 12 AUDIO
    TITLE "0:"
    INDEX 01 00:20:12
  TRACK 13 AUDIO
    TITLE "3:cjc151_0450"
    INDEX 01 00:21:66
  TRACK 14 AUDIO
    TITLE "0:"
    INDEX 01 00:25:48
  TRACK 15 AUDIO
    TITLE "2:cjc151_0451"
    INDEX 01 00:27:34
  TRACK 16 AUDIO
    TITLE "0:"
    INDEX 01 00:28:59
  TRACK 17 AUDIO
    TITLE "3:cjc151_0452"
    INDEX 01 00:30:40
  TRACK 18 AUDIO
    TITLE "0:"
    INDEX 01 00:33:66
  TRACK 19 AUDIO
    TITLE "2:cjc151_0453"
    INDEX 01 00:35:47
  TRACK 20 AUDIO
    TITLE "0:"
    INDEX 01 00:36:38
  TRACK 21 AUDIO
    TITLE "3:cjc151_0454"
    INDEX 01 00:38:26
  TRACK 22 AUDIO
    TITLE "0:"
    INDEX 01 00:42:63
  TRACK 23 AUDIO
    TITLE "2:cjc151_0455"
    INDEX 01 00:44:42
  TRACK 24 AUDIO
    TITLE "0:"
    INDEX 01 00:45:63
  TRACK 25 AUDIO
    TITLE "3:cjc151_0456"
    INDEX 01 00:47:42
  TRACK 26 AUDIO
    TITLE "0:"
    INDEX 01 00:51:01
  TRACK 27 AUDIO
    TITLE "2:cjc151_0457"
    INDEX 01 00:52:55
  TRACK 28 AUDIO
    TITLE "0:"
    INDEX 01 00:53:62
  TRACK 29 AUDIO
    TITLE "3:cjc151_0458"
    INDEX 01 00:55:42
  TRACK 30 AUDIO
    TITLE "0:"
    INDEX 01 00:59:04
  TRACK 31 AUDIO
    TITLE "2:cjc151_0459"
    INDEX 01 01:00:55
  TRACK 32 AUDIO
    TITLE "0:"
    INDEX 01 01:01:72
  TRACK 33 AUDIO
    TITLE "3:cjc151_0460"
    INDEX 01 01:03:51
  TRACK 34 AUDIO
    TITLE "0:"
    INDEX 01 01:07:72
  TRACK 35 AUDIO
    TITLE "2:cjc151_0461"
    INDEX 01 01:09:56
  TRACK 36 AUDIO
    TITLE "0:"
    INDEX 01 01:10:61
  TRACK 37 AUDIO
    TITLE "3:cjc151_0462"
    INDEX 01 01:12:40
  TRACK 38 AUDIO
    TITLE "0:"
    INDEX 01 01:16:36
  TRACK 39 AUDIO
    TITLE "2:cjc151_0463"
    INDEX 01 01:18:13
  TRACK 40 AUDIO
    TITLE "0:"
    INDEX 01 01:19:27
  TRACK 41 AUDIO
    TITLE "3:cjc151_0464"
    INDEX 01 01:21:06
  TRACK 42 AUDIO
    TITLE "0:"
    INDEX 01 01:24:10
  TRACK 43 AUDIO
    TITLE "2:cjc151_0465"
    INDEX 01 01:25:68
  TRACK 44 AUDIO
    TITLE "0:"
    INDEX 01 01:26:60
  TRACK 45 AUDIO
    TITLE "3:cjc151_0466"
    INDEX 01 01:28:37
  TRACK 46 AUDIO
    TITLE "0:"
    INDEX 01 01:32:31
  TRACK 47 AUDIO
    TITLE "2:cjc151_0467"
    INDEX 01 01:34:10
  TRACK 48 AUDIO
    TITLE "0:"
    INDEX 01 01:35:08
  TRACK 49 AUDIO
    TITLE "3:cjc151_0468"
    INDEX 01 01:36:62
  TRACK 50 AUDIO
    TITLE "0:"
    INDEX 01 01:39:72
  TRACK 51 AUDIO
    TITLE "2:cjc151_0469"
    INDEX 01 01:41:56
  TRACK 52 AUDIO
    TITLE "0:"
    INDEX 01 01:42:61
  TRACK 53 AUDIO
    TITLE "3:cjc151_0470"
    INDEX 01 01:44:40
  TRACK 54 AUDIO
    TITLE "0:"
    INDEX 01 01:48:71
  TRACK 55 AUDIO
    TITLE "2:cjc151_0471"
    INDEX 01 01:50:53
  TRACK 56 AUDIO
    TITLE "0:"
    INDEX 01 01:51:60
  TRACK 57 AUDIO
    TITLE "3:cjc151_0472"
    INDEX 01 01:53:39
  TRACK 58 AUDIO
    TITLE "0:"
    INDEX 01 01:57:58
  TRACK 59 AUDIO
    TITLE "2:cjc151_0473"
    INDEX 01 01:59:32
  TRACK 60 AUDIO
    TITLE "0:"
    INDEX 01 02:00:27
  TRACK 61 AUDIO
    TITLE "3:cjc151_0474"
    INDEX 01 02:02:05
  TRACK 62 AUDIO
    TITLE "0:"
    INDEX 01 02:05:50
  TRACK 63 AUDIO
    TITLE "2:cjc151_0475"
    INDEX 01 02:07:27
  TRACK 64 AUDIO
    TITLE "0:"
    INDEX 01 02:08:41
  TRACK 65 AUDIO
    TITLE "3:cjc151_0476"
    INDEX 01 02:10:28
  TRACK 66 AUDIO
    TITLE "0:"
    INDEX 01 02:14:39
  TRACK 67 AUDIO
    TITLE "2:cjc151_0477"
    INDEX 01 02:16:26
  TRACK 68 AUDIO
    TITLE "0:"
    INDEX 01 02:17:14
  TRACK 69 AUDIO
    TITLE "3:cjc151_0478"
    INDEX 01 02:18:68
  TRACK 70 AUDIO
    TITLE "0:"
    INDEX 01 02:22:39
  TRACK 71 AUDIO
    TITLE "2:cjc151_0479"
    INDEX 01 02:24:20
  TRACK 72 AUDIO
    TITLE "0:"
    INDEX 01 02:25:35
  TRACK 73 AUDIO
    TITLE "3:cjc151_0480"
    INDEX 01 02:27:13
  TRACK 74 AUDIO
    TITLE "0:"
    INDEX 01 02:31:50
  TRACK 75 AUDIO
    TITLE "2:cjc151_0481"
    INDEX 01 02:33:27
  TRACK 76 AUDIO
    TITLE "0:"
    INDEX 01 02:34:24
  TRACK 77 AUDIO
    TITLE "3:cjc151_0482"
    INDEX 01 02:36:02
  TRACK 78 AUDIO
    TITLE "0:"
    INDEX 01 02:39:55
  TRACK 79 AUDIO
    TITLE "2:cjc151_0483"
    INDEX 01 02:41:38
  TRACK 80 AUDIO
    TITLE "0:"
    INDEX 01 02:42:40
  TRACK 81 AUDIO
    TITLE "3:cjc151_0484"
    INDEX 01 02:44:15
  TRACK 82 AUDIO
    TITLE "0:"
    INDEX 01 02:47:35
  TRACK 83 AUDIO
    TITLE "2:cjc151_0485"
    INDEX 01 02:49:18
  TRACK 84 AUDIO
    TITLE "0:"
    INDEX 01 02:50:31
  TRACK 85 AUDIO
    TITLE "3:cjc151_0486"
    INDEX 01 02:52:11
  TRACK 86 AUDIO
    TITLE "0:"
    INDEX 01 02:56:36
  TRACK 87 AUDIO
    TITLE "2:cjc151_0487"
    INDEX 01 02:58:15
  TRACK 88 AUDIO
    TITLE "0:"
    INDEX 01 02:59:11
  TRACK 89 AUDIO
    TITLE "3:cjc151_0488"
    INDEX 01 03:00:63
  TRACK 90 AUDIO
    TITLE "0:"
    INDEX 01 03:03:40
